<svg width="27" height="26" viewBox="0 0 27 26" fill="none" xmlns="http://www.w3.org/2000/svg">
<g id="vuesax/linear/trash">
<g id="vuesax/linear/trash_2">
<g id="trash">
<path id="Vector" d="M23.4111 6.47831C19.8036 6.12081 16.1745 5.93665 12.5561 5.93665C10.4111 5.93665 8.26613 6.04498 6.12113 6.26165L3.91113 6.47831" stroke="#23213D" stroke-width="2" stroke-linecap="round" stroke-linejoin="round"/>
<path id="Vector_2" d="M9.86938 5.38419L10.1077 3.96502C10.2811 2.93585 10.4111 2.16669 12.2419 2.16669H15.0802C16.9111 2.16669 17.0519 2.97919 17.2144 3.97585L17.4527 5.38419" stroke="#23213D" stroke-width="2" stroke-linecap="round" stroke-linejoin="round"/>
<path id="Vector_3" d="M21.0819 9.90167L20.3777 20.8108C20.2586 22.5117 20.1611 23.8333 17.1386 23.8333H10.1836C7.16107 23.8333 7.06357 22.5117 6.9444 20.8108L6.24023 9.90167" stroke="#23213D" stroke-width="2" stroke-linecap="round" stroke-linejoin="round"/>
<path id="Vector_4" d="M11.8521 17.875H15.4596" stroke="#23213D" stroke-width="2" stroke-linecap="round" stroke-linejoin="round"/>
<path id="Vector_5" d="M10.9529 13.5417H16.3695" stroke="#23213D" stroke-width="2" stroke-linecap="round" stroke-linejoin="round"/>
</g>
</g>
</g>
</svg>
